<svg width="512" height="512" xmlns="http://www.w3.org/2000/svg"><title>Layer 1</title><g class="svgGrid" stroke="#B35047"><line y2="512" x2="32" x1="32"/><line y2="512" x2="64" x1="64"/><line y2="512" x2="96" x1="96"/><line y2="512" x2="128" x1="128"/><line y2="512" x2="160" x1="160"/><line y2="512" x2="192" x1="192"/><line y2="512" x2="224" x1="224"/><line y2="512" x2="256" x1="256"/><line y2="512" x2="288" x1="288"/><line y2="512" x2="320" x1="320"/><line y2="512" x2="352" x1="352"/><line y2="512" x2="384" x1="384"/><line y2="512" x2="416" x1="416"/><line y2="512" x2="448" x1="448"/><line y2="512" x2="480" x1="480"/><line y2="32" y1="32" x2="512"/><line y2="64" y1="64" x2="512"/><line y2="96" y1="96" x2="512"/><line y2="128" y1="128" x2="512"/><line y2="160" y1="160" x2="512"/><line y2="192" y1="192" x2="512"/><line y2="224" y1="224" x2="512"/><line y2="256" y1="256" x2="512"/><line y2="288" y1="288" x2="512"/><line y2="320" y1="320" x2="512"/><line y2="352" y1="352" x2="512"/><line y2="384" y1="384" x2="512"/><line y2="416" y1="416" x2="512"/><line y2="448" y1="448" x2="512"/><line y2="480" y1="480" x2="512"/><rect height="512" width="512" fill="none"/></g><path fill="#fff" d="M0 192h352v64h-352v-64zm0-96h352v64h-352v-64zm0 192h352v64h-352v-64zm0 96h352v64h-352v-64zm384-96l64 96 64-96h-128zm128-32l-64-96-64 96h128z"/></svg>