<svg width="512" height="512" xmlns="http://www.w3.org/2000/svg"><g class="svgGrid" stroke="#B35047"><line x1="32" x2="32" y2="512"/><line x1="64" x2="64" y2="512"/><line x1="96" x2="96" y2="512"/><line x1="128" x2="128" y2="512"/><line x1="160" x2="160" y2="512"/><line x1="192" x2="192" y2="512"/><line x1="224" x2="224" y2="512"/><line x1="256" x2="256" y2="512"/><line x1="288" x2="288" y2="512"/><line x1="320" x2="320" y2="512"/><line x1="352" x2="352" y2="512"/><line x1="384" x2="384" y2="512"/><line x1="416" x2="416" y2="512"/><line x1="448" x2="448" y2="512"/><line x1="480" x2="480" y2="512"/><line x2="512" y1="32" y2="32"/><line x2="512" y1="64" y2="64"/><line x2="512" y1="96" y2="96"/><line x2="512" y1="128" y2="128"/><line x2="512" y1="160" y2="160"/><line x2="512" y1="192" y2="192"/><line x2="512" y1="224" y2="224"/><line x2="512" y1="256" y2="256"/><line x2="512" y1="288" y2="288"/><line x2="512" y1="320" y2="320"/><line x2="512" y1="352" y2="352"/><line x2="512" y1="384" y2="384"/><line x2="512" y1="416" y2="416"/><line x2="512" y1="448" y2="448"/><line x2="512" y1="480" y2="480"/><rect width="512" height="512" fill="none"/></g><path d="M256 0c-141.385 0-256 114.615-256 256s114.615 256 256 256 256-114.615 256-256-114.615-256-256-256zm-48 416l-106-138 47-49 59 75 185-151 23 23-208 240z"/></svg>